<svg xmlns="http://www.w3.org/2000/svg" width="260" height="56" viewBox="0 0 260 56">
  <defs>
    <linearGradient id="body" x1="0" y1="0" x2="0" y2="1">
      <stop offset="0%" stop-color="#fb7185"/>
      <stop offset="100%" stop-color="#e11d48"/>
    </linearGradient>
    <linearGradient id="profGrad" x1="0" y1="0" x2="1" y2="1">
      <stop offset="0%" stop-color="#fb7185"/>
      <stop offset="60%" stop-color="#f43f5e"/>
      <stop offset="100%" stop-color="#e11d48"/>
    </linearGradient>
  </defs>
  <!-- Mascot icon -->
  <g transform="translate(1,4) scale(0.48)">
    <ellipse cx="50" cy="54" rx="24" ry="22" fill="url(#body)"/>
    <ellipse cx="48" cy="49" rx="13" ry="9" fill="#fda4af" opacity=".15"/>
    <rect x="39" y="73" width="8" height="10" rx="4" fill="#be123c"/>
    <rect x="53" y="73" width="8" height="10" rx="4" fill="#be123c"/>
    <ellipse cx="20" cy="54" rx="8" ry="6" fill="#be123c"/>
    <path d="M15,49 L20,54 L25,49" stroke="#4c0519" stroke-width="1.8" fill="none" stroke-linecap="round"/>
    <ellipse cx="80" cy="54" rx="8" ry="6" fill="#be123c"/>
    <path d="M75,49 L80,54 L85,49" stroke="#4c0519" stroke-width="1.8" fill="none" stroke-linecap="round"/>
    <line x1="39" y1="34" x2="31" y2="20" stroke="#be123c" stroke-width="2.2" stroke-linecap="round"/>
    <circle cx="30" cy="18" r="3.5" fill="#fda4af"/>
    <line x1="61" y1="34" x2="69" y2="20" stroke="#be123c" stroke-width="2.2" stroke-linecap="round"/>
    <circle cx="70" cy="18" r="3.5" fill="#fda4af"/>
    <circle cx="43" cy="51" r="6.5" fill="#fff"/>
    <circle cx="57" cy="51" r="6.5" fill="#fff"/>
    <circle cx="44.5" cy="50" r="3.5" fill="#4c0519"/>
    <circle cx="58.5" cy="50" r="3.5" fill="#4c0519"/>
    <circle cx="46" cy="48.5" r="1.4" fill="#fff"/>
    <circle cx="60" cy="48.5" r="1.4" fill="#fff"/>
    <path d="M45,63 Q50,68 57,62" stroke="#9f1239" stroke-width="2" fill="none" stroke-linecap="round"/>
  </g>
  <!-- prof (coral gradient) -->
  <path d="M55 -200V546H195V442L182 472Q209 513 255.5 535.5Q302 558 362 558Q440 558 503.0 520.0Q566 482 603.0 417.5Q640 353 640 273Q640 194 603.5 129.0Q567 64 504.0 26.0Q441 -12 361 -12Q305 -12 257.5 8.5Q210 29 181 69L205 100V-200ZM343 123Q385 123 417.0 142.0Q449 161 467.0 195.0Q485 229 485 273Q485 317 467.0 350.5Q449 384 417.0 403.5Q385 423 343 423Q303 423 271.5 404.0Q240 385 222.5 351.0Q205 317 205 273Q205 229 222.5 195.0Q240 161 271.5 142.0Q303 123 343 123Z" transform="translate(56,40) scale(0.032,-0.032)" fill="url(#profGrad)"/>
  <path d="M55 0V546H195V415L185 434Q203 503 244.5 527.5Q286 552 343 552H375V422H328Q273 422 239.0 388.5Q205 355 205 294V0Z" transform="translate(76.10,40) scale(0.032,-0.032)" fill="url(#profGrad)"/>
  <path d="M326 -12Q245 -12 178.5 25.0Q112 62 72.5 126.5Q33 191 33 273Q33 356 72.5 420.0Q112 484 178.5 521.0Q245 558 326 558Q407 558 473.0 521.0Q539 484 578.5 420.0Q618 356 618 273Q618 191 578.5 126.5Q539 62 473.0 25.0Q407 -12 326 -12ZM326 123Q367 123 397.5 142.0Q428 161 445.5 195.0Q463 229 463 273Q463 317 445.5 350.5Q428 384 397.5 403.5Q367 423 326 423Q285 423 254.0 403.5Q223 384 205.5 350.5Q188 317 188 273Q188 229 205.5 195.0Q223 161 254.0 142.0Q285 123 326 123Z" transform="translate(87.01,40) scale(0.032,-0.032)" fill="url(#profGrad)"/>
  <path d="M121 0V416H29V546H121V554Q121 619 146.5 664.0Q172 709 220.0 733.0Q268 757 336 757Q349 757 364.0 755.5Q379 754 389 752V624Q379 626 371.5 626.5Q364 627 356 627Q314 627 292.5 608.5Q271 590 271 554V546H388V416H271V0Z" transform="translate(106.40,40) scale(0.032,-0.032)" fill="url(#profGrad)"/>
  <!-- Claw (white) -->
  <path d="M420 -12Q340 -12 271.5 17.0Q203 46 152.0 98.0Q101 150 72.5 220.0Q44 290 44 373Q44 456 72.0 526.5Q100 597 151.0 648.5Q202 700 270.5 728.5Q339 757 420 757Q501 757 565.5 730.0Q630 703 675.0 658.0Q720 613 739 558L602 492Q583 546 535.5 581.5Q488 617 420 617Q354 617 304.0 586.0Q254 555 226.5 500.5Q199 446 199 373Q199 300 226.5 245.0Q254 190 304.0 159.0Q354 128 420 128Q488 128 535.5 163.5Q583 199 602 253L739 187Q720 132 675.0 87.0Q630 42 565.5 15.0Q501 -12 420 -12Z" transform="translate(118.08,40) scale(0.032,-0.032)" fill="#ffffff"/>
  <path d="M55 0V757H205V0Z" transform="translate(141.38,40) scale(0.032,-0.032)" fill="#ffffff"/>
  <path d="M224 -12Q165 -12 122.0 7.0Q79 26 56.0 61.5Q33 97 33 146Q33 192 54.0 227.5Q75 263 118.5 287.0Q162 311 227 321L394 348V238L254 213Q222 207 205.0 192.5Q188 178 188 151Q188 126 207.0 112.0Q226 98 254 98Q291 98 319.0 114.0Q347 130 362.5 157.5Q378 185 378 218V360Q378 391 353.5 412.0Q329 433 287 433Q247 433 216.5 411.0Q186 389 172 353L52 410Q68 456 103.0 489.0Q138 522 187.0 540.0Q236 558 294 558Q363 558 416.0 533.0Q469 508 498.5 463.5Q528 419 528 360V0H388V88L422 94Q398 58 369.0 34.5Q340 11 304.0 -0.5Q268 -12 224 -12Z" transform="translate(148.26,40) scale(0.032,-0.032)" fill="#ffffff"/>
  <path d="M199 0 11 546H166L298 152L244 153L391 546H521L667 153L613 152L745 546H901L712 0H582L430 422H482L329 0Z" transform="translate(165.50,40) scale(0.032,-0.032)" fill="#ffffff"/>
</svg>
